<svg xmlns="http://www.w3.org/2000/svg" xmlns:xlink="http://www.w3.org/1999/xlink" width="225px" height="225px" style="shape-rendering:geometricPrecision; text-rendering:geometricPrecision; image-rendering:optimizeQuality; fill-rule:evenodd; clip-rule:evenodd"><g><path style="opacity:1" fill="#fefefe" d="M -0.5,-0.5 C 74.5,-0.5 149.5,-0.5 224.5,-0.5C 224.5,74.5 224.5,149.5 224.5,224.5C 149.5,224.5 74.5,224.5 -0.5,224.5C -0.5,149.5 -0.5,74.5 -0.5,-0.5 Z"></path></g><g><path style="opacity:1" fill="#000000" d="M 111.5,57.5 C 144.965,90.4652 178.299,123.632 211.5,157C 208.616,160.586 205.283,163.252 201.5,165C 171.667,135.167 141.833,105.333 112,75.5C 82.1667,105.333 52.3333,135.167 22.5,165C 18.7174,163.252 15.3841,160.586 12.5,157C 45.7015,123.965 78.7015,90.7987 111.5,57.5 Z"></path></g></svg>